<svg xmlns="http://www.w3.org/2000/svg" width="89" height="76" fill="none"><path fill="#88B234" d="M48.57 66.06c5.4 6.93 12.95 11.16 17.51 9.14 4.56-2.02 4-9.33-1.3-16.35a66.5 66.5 0 0 0-2.24-2.7c.47-1.24.75-2.4 1.03-3.17.65-.86.37-2.4-.65-3.84.18-.68 0-3.85-.2-6.45 4.76 4.14 10.81 5.58 16.21 3.37 8.38-3.46 11.92-14.62 7.92-24.91-4-10.3-14.06-15.77-22.44-12.21-4.2 1.73-7.18 5.38-8.57 9.8a4.5 4.5 0 0 0-1.86-.19s-.56.2-1.03-.19c0 0 0-1.06-.93-.96-.84.1-4.84-2.5-5.21-2.7-.38-.28-.66-.86-1.3-.67-.66.2.18-1.25.64-1.44.56-.29.56-.87.56-.87l-.1-.48s1.87-.48 1.22-1.82c-.28-.58-2.05-2.4-3.26-3.66.47-.29.93-.48 1.4-.77 1.4.2 2.88.39 2.98.3.28-.3 1.2-.88.28-1.84 0 0-.38-.1-.93-.19.09-.1.09-.2.09-.29.1-.96.1-2.88-2.7-2.5-2.61.29-2.42.29-3.45 2.5-.37 0-1.12.2-1.12.87 0 .38.1.57.2.77-.1.19-.2.29-.38.48l-10.8 2.6s-3.73-1.74-7.55.1c0 0-.28-.3-.65-.2-.1 0-.74.29-1.67.77-.1-.87-.56-2.4-2.24-2.89-2.42-.77-6.24 4.14-7.91 7.5-1.68 3.27-2.43 4.9-2.43 4.9s-3.81-.09-5.96 3.38C-.3 24.6-.3 26.92 3.5 33.17c0 0-2.32 5.1 1.77 12.02 4.57 7.7 10.71 18.28 14.25 20.58 0 0 2.05-.48 2.51-1.05 0 0 4.66 3.17 7.92 1.15s6.52-9.42 6.05-13.46c0 0 6.24 5.96 8.38 6.92a41.73 41.73 0 0 0 4.2 6.73ZM39.54 7.11c-.93.96-1.95 1.83-2.88 2.7-1.87-.59-3.54-1.16-3.54-1.16l6.42-1.54Zm.93 3.75a35.4 35.4 0 0 1 2.8-3.94l2.51 2.88c-.19.1-.37.1-.37.1-.47-.3-.84-.2-1.86.19-1.12.38-.66.77-.66.77s0 .1-1.2.2c-.29 0-.66-.1-1.22-.2Zm7.55 50.88c-.1 1.15 1.86 3.07 1.86 3.07-2.52-1.15-1.86-3.07-1.86-3.07Zm4.19-2.02c-.28.76.93 2.4.93 2.4l-1.86 1.73c-1.3-.48-1.68-3.17-1.68-3.17s.28-.39 1.2-.68c.75-.38 1.4-.28 1.4-.28Zm6.33-.97s-5.5 4.43-7.36 7.5c0 0-.74-.38-.84-.67.1.1 3.64-4.13 8.2-6.83Zm-35.95 5.87c.38-.29.38-.96.38-.96.46.77 3.35 2.3 3.35 2.3-1.58-.19-3.73-1.34-3.73-1.34Zm-4.47-1.25c.28.67 1.68 1.64 2.24 1.73.65.1 1.77-.38 1.77-.38s-1.59 1.05-2.24.86c-.74-.29-3.44-3.75-3.44-3.75 1.02-.2 1.4.77 1.67 1.54Zm-12-18.08c1.67.67 2.88 2.79 3.25 3.46.65 1.06 1.49 3.46 3.17 5.39a12.15 12.15 0 0 0 3.16 2.69c.47 2.79-.93 1.64-1.58 1.06-.65-.58-2.24-3.08-2.89-4.23-.65-1.06-2.14-3.75-2.42-4.24-.93-1.34-2.7-4.13-2.7-4.13Zm43.94 8.08c.1.48.2.96.38 1.44-.28 0-.65 0-1.03.2-.37.19-.84-.2-1.3-.78.28-.19.65-.48 1.02-.67.28 0 .66-.1.93-.2Zm-5.21-2.6c-2.42-2.02-3.73-8.56-7.73-10.87 0 0-.56-2.02.1-4.13 0 0 2.88.77 5.67.96-.55 1.92 1.5 4.42.84 7.5-.74 3.37-.18 4.52.56 4.23.75-.38 2.52-3.07 3.91-3.17 0 0 .37 1.83.93 4.13-.74.1-1.4.2-2.05.49a4.2 4.2 0 0 0-1.76 1.34c-.2-.29-.38-.38-.47-.48Zm5.3-1.44s-.18-1.06.29-1.44c.56-.39 1.02-.2 2.51 1.92.1 0-1.86-.58-2.8-.48Zm-.27-1.73-.28-1.54.93 1.06-.65.48Zm-5.03-10.97c.56 0 1.12-.1 1.58-.29.28-.1.56-.19.84-.19l.28 3.56s-1.96-1.35-2.7-3.08ZM3.41 20.2s-1.77 2.69-1.4 4.52c.28 1.54.1 1.83 0 4.04 0 0-1.2-1.73-1.02-3.56.19-1.92 1.68-4.23 2.42-5Zm7.08-6.45s-.75 3.18-1.3 4.33c-.47 1.16-1.68 3.18-1.59 4.62.19 1.83-.56 2.88-.56 2.88l-.28-1.54s-.65 1.83-.65 3.37c0 1.83.93 2.6.84 2.6 0 0-1.03.86-.93 1.73.18 1.63 0 2.98-.75 4.71-.74 1.83 2.05 4.04 1.21 4.33-2.32.86 2.15 2.88 2.15 2.88s-3.08 0-3.82-1.15c-.75-1.06-1.3-4.14-1.4-5.29-.1-1.73.65-3.27.75-4.04 0-.29.18-2.3.46-4.42l1.12-4.33 1.4-4.14c.55-1.34.74-1.92 1.4-2.79 1.3-1.53 1.95-3.75 1.95-3.75Zm5.12-4.32s-1.12-.58-1.96.28c-.93.97-.74 1.74-.74 1.74s-.75-.2-1.5.38c0 0 2.24-3.56 4.1-4.8 0 0-1.11 1.82.1 2.4Zm.84 17.98a2.6 2.6 0 0 0-.65-1.35c-.38-.57 0-1.25-.47-1.82-.74-.96-.84-.96-.65-1.64.1-.29.74-.57 1.02-.67.93-.39-.74-3.46-2.6-3.66 0 0-.28-2.11.65-4.13.37.38.84.48 1.49.1 1.67-.97 8.2-4.04 8.28-4.43 0-.38 1.59-1.25 2.98-1.06 1.03.2 5.13 1.35 8.57 2.4-.37.3-.74.58-1.02.78-1.77 1.34-2.89 1.82-4.66 4.32s-5.96 6.45-9.12 7.8a6.41 6.41 0 0 0-3.73 4.7s0-.57-.1-1.34Zm2.7-.67c-.28.48 1.02 1.44 1.02 1.44-.74-.2-2.33-.87-2.33-.87 0-1.63 1.68-2.3 2.9-2.88 1.1-.58 3.72-2.4 3.72-2.4s1.4-.39.28 1.34c-.38.67-.94.77-2.61 1.73-1.5.77-.84 1.06-1.4 1.54-.46.29-1.3-.38-1.58.1Zm12.76-10.1c.28.67-4.1 2.5-4.1 2.5 1.2-1.25 2.42-2.98 3.72-4.42a23.23 23.23 0 0 1 3.63-2.99s-2.32 2.12-3.53 3.47c-1.68 1.73 0 .77.28 1.44Zm9.87-.67c.28.48 1.4 1.34 1.77 1.05.37-.28.74-.48.74-.48s1.12 1.16 1.68 1.16l.84 11.54c-.75-.1-1.4-.1-1.87-.2-1.86-.19-2.6-1.05-3.9-.86-1.22.2-8.2-2.12-10.34 1.44-2.15 3.56-4.66 16.83-4.66 16.83s-1.21 0-.37-2.02c.93-2.02-.75-4.9-.75-4.9s.56-2.98-.46-4.81c-1.03-1.83-.66-4.52 1.3-6.35a392.1 392.1 0 0 0 9.22-8.85c.93-1.05 2.8-4.03 4.56-6.92 2.24.58 2.7.2 2.7.2s-.84 2.59-.46 3.17Zm13.6 13.75h-.57l-2.23-6.64s.93.68 2.33 1.64c0 1.63.09 3.27.46 5Zm3.72-2.3c.37.28.84.47 1.2.76-.36 0-.74.2-1.11.29 0-.39-.1-.67-.1-1.06Zm5.21.57c-1.86-1.16-5.03-3.27-5.03-3.27s0-1.25.19-1.93l8.57 4.81c-.19.1-.28.2-.47.3l-.28.28c-.1 0-.18.1-.28.1-.74-.48-1.67-.48-2.7-.3Zm-2.23-.39s-.19 0-.56-.19c-.28-.2-.75-.38-1.3-.67-.47-.3-1.12-.58-1.77-.96-.28-.2-.66-.39-.94-.58-.37-.2-.65-.39-1.02-.58-.37-.2-.65-.38-1.02-.67-.28-.2-.66-.39-.94-.67-.18-.1-.28-.2-.46-.3-.19-.09-.28-.19-.47-.38a4.77 4.77 0 0 1-.65-.77c-.19-.29-.28-.57-.37-.77-.1-.29-.1-.48-.1-.67 0-.38.1-.58.1-.58s-.1.2 0 .58c0 .2.1.38.19.58.09.19.18.48.37.67.18.2.37.48.65.67l.84.58c.65.39 1.3.77 1.95 1.25 2.89 1.73 5.5 3.46 5.5 3.46ZM48.1 33.84c-.1 0-.19-.19-.28-.67-.1-.38-.28-.96-.37-1.73-.1-.38-.19-.77-.19-1.15-.1-.39-.1-.87-.19-1.25-.09-.49-.09-.87-.18-1.35 0-.48-.1-.96-.1-1.44s0-.97-.09-1.45v-2.59c0-.39 0-.77.1-1.16 0-.67.09-1.34.18-1.73.1-.38.1-.67.1-.67h.09l.56 7.6c.09 3.84.37 7.6.37 7.6Zm.19-13.46 3.07 9.14c-.84-.1-1.68-.1-2.52-.2l-.55-8.94Zm6.33 12.02c1.58 4.81 3.16 9.52 3.16 9.52h-.09s-.19-.29-.37-.77c-.28-.48-.56-1.15-1.03-2.02-.18-.38-.37-.86-.65-1.44-.18-.48-.46-1.06-.65-1.54-.19-.57-.47-1.15-.65-1.73-.19-.58-.37-1.15-.65-1.73-.19-.58-.38-1.15-.56-1.83l-.56-1.73c-.19-.58-.28-1.15-.47-1.63-.18-.48-.28-1.06-.37-1.45-.19-.96-.37-1.73-.46-2.2-.1-.58-.2-.87-.2-.87h.1c.19-.1 1.77 4.61 3.45 9.42Zm-3.45-13.75h-.28c-.18-.1-.37-.1-.65-.2a6.3 6.3 0 0 1-1.86-.96c-.19-.1-.28-.19-.47-.28-.18-.1-.28-.2-.46-.3-.28-.18-.56-.47-.75-.67-.46-.38-.65-.76-.65-.76l2.6 1.53c1.31.87 2.52 1.64 2.52 1.64Zm28.03-2.79s-.18-.2-.56-.38c-.18-.1-.37-.3-.65-.49l-.84-.57c-.28-.2-.65-.39-1.02-.68-.37-.19-.75-.48-1.12-.67-.37-.2-.84-.38-1.2-.58-.48-.19-.85-.28-1.31-.48l-1.4-.29c-.47 0-.93-.1-1.3-.1-.47 0-.84.1-1.3.1-.38.1-.75.1-1.12.2-.38.1-.66.19-.94.29-.28.1-.55.19-.74.28-.37.2-.65.3-.65.3l-.1-.1s.19-.2.56-.39c.38-.29.93-.58 1.68-.86a9.71 9.71 0 0 1 2.51-.58c.47 0 .93-.1 1.5 0 .46 0 1.02.1 1.48.29.47.1.93.29 1.4.48.47.19.93.48 1.3.67.38.29.75.48 1.12.77.37.29.65.58.93.77.19.1.28.29.37.38l.38.39.56.58c.37.48.55.67.46.67ZM76.7 42.02c-4.38 1.83-9.5 0-13.13-4.14.74-.57 1.4-1.15 1.58-1.34.47-.39 2.05-3.27 2.05-3.85 0-.29-.19-.58-.28-.77.1 0 .19.1.19.1l.55-.48c.75.57 1.87.57 2.61-.1.37-.29.65-.77.75-1.25l.84-.58c.55.1 1.2-.1 1.67-.48 1.03-.77 1.12-2.21.37-3.27-.74-1.06-2.14-1.15-3.16-.38-.28.19-.47.48-.65.86-1.5-.96-6.24-3.94-10.43-5.96 1.02-3.08 3.07-5.48 5.86-6.64 6.06-2.5 13.41 1.83 16.4 9.62 3.25 7.8.83 16.16-5.22 18.66Zm-11.74.38c-.74-.57-1.3-1.25-1.86-1.82-.56-.58-1.02-1.25-1.49-1.83a13.1 13.1 0 0 1-1.12-1.64c-.28-.48-.55-.96-.74-1.34-.19-.39-.37-.68-.47-.87-.09-.19-.09-.29-.09-.29l.1-.1.74 1.07c.46.67 1.2 1.63 2.14 2.69.47.58 1.02 1.06 1.58 1.63.56.58 1.21 1.16 1.87 1.64.37.29.74.48 1.11.77.19.1.38.19.56.38l.56.3a9 9 0 0 0 2.52.95c.83.2 1.76.3 2.7.3.93-.1 1.76-.3 2.51-.59l.56-.28.56-.3c.37-.19.74-.38 1.02-.67.19-.1.37-.19.47-.38.18-.1.28-.29.46-.39.28-.28.56-.48.84-.76.28-.3.47-.49.65-.77.19-.2.38-.48.56-.68.19-.19.37-.38.47-.57.18-.2.28-.39.37-.58l.74-1.06.1.1s-.1.1-.19.29c-.1.19-.28.48-.46.86-.1.2-.19.39-.38.58-.09.19-.28.48-.46.67-.19.29-.28.48-.56.77-.19.29-.47.48-.65.77a6.16 6.16 0 0 1-1.21 1.25c-.19.1-.28.29-.47.38-.37.3-.65.58-1.02.77-.19.1-.38.3-.56.39-.19.1-.47.2-.65.29-.19.1-.47.19-.66.29-.18.1-.46.1-.74.19-.1 0-.28.1-.37.1l-.38.1c-.28 0-.46.09-.74.09a7.7 7.7 0 0 1-2.98-.3c-.93-.28-1.96-.66-2.8-1.15-.74-.1-1.48-.67-2.14-1.25Zm-4.37 4.81c-.1 0-.19-.1-.19-.1-.65-2.3-1.58-5.28-2.6-8.36.83.48 1.58.96 2.14 1.15.18.3.37.48.65.77-.19 1.73-.1 4.52 0 6.54Zm-3.17.3-7.63-4.24-.47-7.21c1.86.19 3.63.77 4.56.86l3.54 10.58Zm-.46 3.26s-1.87 0-2.43-.58c0 0-1.77-2.98-2.23-3.46l5.12 2.89s-.74.77-.46 1.15Zm5.3 5.1a6.1 6.1 0 0 0-.83-.77c.09-.48.09-.96.09-1.54.56.1 1.02.1 1.49 0-.19.77-.47 1.54-.75 2.3Zm-4.75.38s-.09-.38-.18-.86c-.1-.3-.1-.58-.1-.87V52.6c0-.29.1-.58.1-.87.1-.48.28-.86.28-.86h.09v2.79c-.1 1.15-.1 2.6-.19 2.6Zm-5.58-.48c-.1-.1-.28-.19-.38-.38-.37-1.25-.65-2.12-.65-2.12 2.89.29 5.31 2.02 5.31 2.02.1.39.28.77.37 1.25-1.49 0-4-.2-4.65-.77ZM59 60.4l-.18-.87c.1-.29.18-.57.18-.86.1-.1.19-.1.28-.2 0 0 0-.19-.09-.48v-.19l.37.39-.56 2.2Zm1.87-.58a11.41 11.41 0 0 1-1.4 2.7v-.1c.28-.39.56-.87.74-1.35.1-.38.28-.96.47-1.54 0 .1.1.2.19.3Zm2.79 12.22c-3.91 0-7.82-2.4-11.55-6.83.19-.2.28-.39.56-.68l.84.87.75-.77c.09.2.18.39.37.58.56.77 1.49 1.15 1.86.77.19-.2.28-.48.28-.87.56-.58 1.21-1.25 1.86-1.83.28.1.56.1.75-.1.09 0 .09-.09.09-.09.56-.48 1.12-1.63 1.77-2.98.1.1.19.2.28.38 3.91 5.49 5.03 11.64 2.14 11.55ZM50.9 66.54c-.1-.1-.1-.19-.1-.19l.1-.1s.65.68 1.77 1.74a38.5 38.5 0 0 0 4.38 3.27c.46.28.84.48 1.3.67l1.3.58a6.7 6.7 0 0 0 2.52.48c.37 0 .65-.1.93-.2.19 0 .28-.1.37-.1.1-.09.19-.09.28-.18.19-.1.28-.2.38-.3.09-.09.18-.09.18-.09l.1.1-.1.1-.18.19-.19.19c-.1.1-.19.2-.28.2-.1.09-.28.09-.37.18-.28.1-.65.3-1.03.3-.18 0-.37 0-.65.09h-.65c-.19 0-.47-.1-.65-.1-.19 0-.47-.1-.75-.19-.28-.1-.46-.1-.74-.2-.28-.09-.47-.18-.75-.28-.46-.2-.93-.48-1.4-.67-.46-.3-.83-.58-1.3-.87-.37-.29-.74-.58-1.11-.96-.38-.29-.66-.67-1.03-.96l-.84-.87c-.46-.58-.93-1.06-1.11-1.44-.2-.1-.28-.29-.38-.39Z"/></svg>