<svg xmlns="http://www.w3.org/2000/svg" width="60" height="76" fill="none"><path fill="#88B234" d="M48.47 42.76c-.37-1.99-4.25-8.04-4.25-8.04 3.21 1.04 9.74-.66 11.82-3.03 2.09-2.46.29-6.81.29-6.81.57-.29 1.23-1.9 1.23-1.9-1.33-3.3-8.9-10.03-14.48-14.95-5.01-4.44-9.46-3.3-9.46-3.3C29.08.55 27.28.17 24.25 1.4c-3.03 1.23-3.6 4.45-3.6 4.45s-1.41.38-4.35 1.32c-2.93.95-7.47 3.4-7.28 5.5A2.64 2.64 0 0 0 11 14.93c-.47.76-.85 1.23-.85 1.33-.1.28.1.56.1.56-2.09 2.94-1.23 6.25-1.23 6.25l-3.79 8.7c-.1.1-.28.2-.38.2-.1-.1-.28-.2-.57-.29-.47-.1-.75.47-.85.76-1.98.47-1.89.38-2.55 2.46-.76 2.27.85 2.55 1.6 2.65h.3v.75c.65.86 1.32.29 1.5 0 .1-.1.2-1.32.2-2.55.28-.38.56-.76.85-1.04.85 1.23 1.98 2.93 2.46 3.31.94.76 1.6-.76 1.6-.76l.38.2s.48.09.76-.3c.28-.37 1.51-.84 1.32-.37-.28.57.2.85.38 1.23.2.38 1.61 4.07 1.42 4.73-.19.76.66.85.66.85.2.48 0 .85 0 .85-.18.38-.18.86-.18 1.52-3.88.57-7.2 2.46-9.28 5.77-4.07 6.53-1.23 15.7 6.44 20.63 7.66 4.82 17.22 3.6 21.38-2.93 2.65-4.17 2.37-9.56-.19-14.1a41.9 41.9 0 0 0 5.11 1.13c1.04 1.04 2.18 1.52 3.03 1.14.66-.1 1.6-.2 2.74-.38.57.76 1.14 1.51 1.8 2.27 4.92 5.49 10.79 7 13.06 3.5 2.37-3.5 0-10.5-4.73-16a18.51 18.51 0 0 0-5.02-4.25ZM9.3 25.45l.38 3.12c-.76.66-1.7 1.32-2.56 1.98l2.18-5.1Zm.57 7.57c-.29 1.04-.29.94-.29.94s-.28-.47-.75.47c-.48.86-.57 1.14-.38 1.61 0 0-.1.2-.2.29l-1.98-2.46a31.2 31.2 0 0 1 3.6-1.8c.1.38 0 .76 0 .95Zm42.3 14.85s-1.24-1.9-2.18-1.99c0 0 1.6-.28 2.17 2Zm-4.07 0c.37-.76.75-.85.75-.85s2.08.76 2.27 1.9l-1.7 1.32s-1.14-1.23-1.8-1.14c.1 0 .1-.57.48-1.23Zm4.63.57c.29.1.38.76.38.76-2.84 1.04-7.2 5.01-7.2 5.01a32.72 32.72 0 0 1 6.82-5.77Zm3.98-20.16s-.86-2.55-1.42-3.12c0 0 .56.1.85-.1 0-.09.76 1.9.57 3.22Zm-1.9-8.8s2.46 2.75 2.56 3.41c.1.66-1.04 1.8-1.04 1.8s.57-.85.57-1.42c0-.47-.48-1.8-1.05-2.18-.56-.38-1.32-.75-1.04-1.6Zm-8.7-8.32c.38.28 2.27 1.89 3.03 2.65.75.75 2.55 2.36 2.93 3.02.38.57 1.14 2-1.04 1.14 0 0-.38-1.32-1.7-3.03-1.33-1.6-3.13-2.74-3.88-3.4-.48-.48-2-1.7-2.37-3.22 0 .1 1.99 1.99 3.03 2.84ZM43.27 45.6c.19-.28.47-.57.66-.76.38.57.57.95.38 1.23-.19.29-.28.57-.28.76-.38-.19-.76-.38-1.14-.47.1-.29.29-.57.38-.76ZM41.85 42a3.8 3.8 0 0 0-1.42 1.33 4.58 4.58 0 0 0-.66 1.7c-1.8-.75-3.22-1.42-3.22-1.42.38-1.13 2.75-2.17 3.22-2.74.38-.57-.47-1.23-3.31-1.14-2.56.1-4.36-1.98-5.96-1.89.28-2.36.09-4.92.09-4.92 1.8-.19 3.4.47 3.4.47 1.24 3.7 6.35 5.78 7.58 8.05.1.28.19.38.28.56Zm-2.27 6.25c-1.42-1.6-1.6-1.99-1.14-2.37.38-.37 1.23-.1 1.23-.1-.28.77-.1 2.47-.1 2.47Zm-1.9-2.46-.66-.95 1.23.48-.56.47Zm-5.48-3.6-2.84-.75c.1-.29.19-.48.28-.67.2-.37.38-.85.48-1.32 1.32.85 2.08 2.74 2.08 2.74ZM27.56 1.13c1.52.19 2.75 1.42 2.75 1.42-1.8-.2-2-.1-3.22-.57-1.51-.57-3.88.47-3.88.47.66-.57 2.84-1.51 4.35-1.32Zm-7.38 5.3c.85-.38 1.33-.48 2.46-.76l3.6-.57 3.69-.28c1.8.1 3.5.19 3.69.28.66.1 1.99-.38 3.4 0A12.2 12.2 0 0 1 41.1 7c.76.75.29 3.3.29 3.3s-.95-3.97-1.99-2.17c-.38.57-1.7-1.99-3.31-1.7-1.61.37-2.65.28-3.98-.1-.75-.19-1.51.47-1.6.57 0 0-.48-.85-2-1.14-1.32-.19-2.83 0-2.83 0l1.23.48s-.95.47-2.46.1c-1.14-.3-2.93.37-3.97.65-1.05.29-3.7.38-3.7.38s2-.28 3.41-.94Zm-9.56 4.16c1.33-1.33 4.55-2.74 4.55-2.74-.57.56-.57 1.23-.57 1.23s-.57-.29-1.52.37c-.85.48-.47 1.52-.47 1.52-.28-1.14-1.99-.38-1.99-.38Zm17.51 4.07c-.85 0-3.03.38-4.35 2.46-1.61 2.36-5.4 5.3-7.67 6.43-2.27 1.14-2.93 1.99-4.26 3.22-.18.19-.47.47-.75.66-.29-3.03-.66-6.62-.66-7.47 0-1.23.94-2.37 1.32-2.37.28 0 3.79-4.92 4.92-6.24.38-.48.38-.95.1-1.23 1.8-.48 3.4.1 3.4.1-.1 1.6 2.08 3.4 2.56 2.73.1-.18.47-.66.66-.75.57-.1.57 0 1.23.75.38.48 1.04.29 1.42.67.28.28.57.56 1.04.75.57.2 1.04.29 1.04.29Zm-2.46 3.12c-.47.38-.57-.1-1.42.95-1.04 1.32-1.23 1.7-1.8 1.98-1.6.67-1.04-.47-1.04-.47s1.99-1.9 2.56-2.74c.66-.95 1.42-2.18 2.74-1.99 0 0 .28 1.42.38 2.08 0 0-.57-1.23-.95-1.13-.56.19-.1.94-.47 1.32Zm-10.88 7.38c-1.23.85-3.31 2.46-3.31 2.46s1.6-1.8 2.93-2.65c1.32-.85 3.03-1.51 4.16-2.46 0 0-2.17 3.4-2.65 3.03-.47-.19.57-1.42-1.13-.38Zm-3.7 8.52s.39-.38.3-2.27c2.64-1.04 5.29-2.18 6.33-2.84 1.9-1.33 6.9-5.02 8.61-6.34 1.7-1.33 4.07-1.33 5.3-.1 1.33 1.14 3.79 1.14 3.79 1.14s2.08 1.8 3.88 1.42c1.8-.47 1.6.57 1.6.57s-11.07.09-14.28 1.42c-3.22 1.23-2.37 7.47-2.75 8.42-.38 1.04.29 1.8.1 3.4 0 .38-.1.95-.2 1.52l-9.17-2.37c.19-.47-.66-1.6-.66-1.6s.28-.3.56-.57c.29-.29-.19-1.33-.56-1.7-.48-.3-2.84-.1-2.84-.1Zm7.77 12.4-.95-2.18 5.02 2.84c0 .18-.1.28-.1.47a24.37 24.37 0 0 0-3.97-1.14Zm2.46 4.16c-.2.28-.29.56-.38.85-.2-.38-.29-.76-.47-1.14l.85.29Zm-1.42 6.62c0 .1-.1.1-.1.19-.1.1-.19.1-.28.19-.1.1-.19.19-.28.38l-2.56-7.86c.57-.1 1.6.2 1.6.2s1.24 2.93 1.9 4.63a3.72 3.72 0 0 0-.28 2.27Zm-1.7-9.18c-.2-.66-.48-1.23-.67-1.8-.1-.28-.19-.56-.38-.85a1.7 1.7 0 0 0-.47-.66c-.19-.19-.28-.38-.47-.47-.2-.1-.29-.2-.48-.2-.28-.09-.47-.09-.47-.09s.19-.1.47 0c.2 0 .29.1.57.2.2.09.38.28.57.47.19.18.38.37.47.66.1.1.2.28.2.38.09.1.09.28.18.37.1.29.29.57.38.86.1.28.28.56.38.94.1.29.19.66.38.95l.28.85c.19.57.38 1.14.47 1.6.2.48.29.86.29 1.14.1.29.1.48.1.48.18 0-.86-2.46-1.8-4.83Zm3.21-7.38c-3.03-.76-6.05-1.6-6.05-1.6v-.1h.56c.38 0 .86.1 1.42.1.29 0 .57.09.95.09.38.1.66.1 1.04.19.38.1.76.1 1.14.19l1.13.28 1.14.28 1.04.29c.38.1.66.19 1.04.38.28.09.66.18.85.37a6.1 6.1 0 0 1 1.32.57c.29.2.48.29.48.29v.09c0 .1-3.03-.66-6.06-1.42Zm2.18 1.52c-.1.66-.2 1.41-.2 2.08l-6.9-3.88 7.1 1.8ZM18 42.86c0-.1.28 0 .75.19.48.18 1.04.37 1.7.75l1.14.57c.38.19.85.38 1.23.66.47.2.85.48 1.33.66.47.29.94.48 1.32.76.47.29.85.57 1.33.76.47.28.85.57 1.23.76.37.28.85.56 1.13.75.38.29.76.48 1.04.76.66.47 1.14.85 1.52 1.14.37.28.56.47.56.47v.1s-3.6-2.09-7.19-4.08c-3.5-2.17-7.1-4.25-7.1-4.25Zm-4.26-3.13c-.48-1.23-.85-2.46-.85-2.46s.18.29.47.67c.1.18.28.47.38.75.1.1.1.29.19.38.1.19.1.28.19.47.09.2.09.29.18.48.1.19.1.28.1.47.1.28.1.57.19.85 0 .29.1.48.1.57v.19c-.1 0-.48-1.14-.95-2.37ZM7.98 65.2s-.1-.2-.38-.48c-.1-.19-.29-.37-.38-.56-.1-.1-.2-.2-.2-.38-.09-.1-.18-.29-.28-.38-.18-.28-.28-.57-.47-.95-.19-.38-.28-.66-.47-1.04-.1-.38-.29-.75-.38-1.23-.1-.38-.19-.85-.19-1.23v-1.32c0-.38.1-.85.19-1.23a7.83 7.83 0 0 1 1.8-3.22l.38-.38.1.1s-.1.19-.3.47l-.28.57c-.1.19-.28.47-.38.75-.09.29-.28.57-.37.95-.1.38-.2.66-.29 1.04-.1.38-.1.76-.19 1.14v1.13c0 .38.1.76.2 1.14l.28 1.13c.1.38.19.76.37 1.04.2.29.29.67.38.95.1.28.29.57.38.76.1.19.2.47.29.56.19.38.28.67.19.67Zm5.67 3.5c-5.86-3.7-8.23-10.5-5.3-15.14a8.87 8.87 0 0 1 6.34-3.88 76.95 76.95 0 0 0 3.22 9.56c-.28.09-.57.19-.76.37-.75.67-.85 1.9-.19 2.75.67.76 1.9.85 2.75.19.38-.38.57-.85.66-1.33.19-.19.38-.38.66-.56.38 0 .76-.2 1.14-.48.66-.57.76-1.42.47-2.17l.47-.38v-.2c.1.1.38.3.57.39.48.1 3.03-.86 3.4-1.14.2-.1.77-.57 1.33-1.13 2.84 3.69 3.5 8.23 1.33 11.63-3.12 4.45-10.22 5.2-16.09 1.52Zm19.02-9.37c.29.76.38 1.6.48 2.46 0 .85-.1 1.7-.29 2.56-.1.18-.1.37-.19.56l-.1.29c0 .1-.09.19-.09.28l-.28.57c-.1.19-.2.38-.29.47-.09.2-.18.38-.37.47-.1.2-.29.29-.38.48l-.76.76-.38.37c-.1.1-.28.2-.38.29-.28.19-.56.38-.75.57-.29.18-.48.28-.76.47-.28.1-.47.19-.76.28-.19.1-.47.2-.66.29-.19.1-.38.1-.57.19-.28.09-.56.18-.75.28-.2.1-.29.1-.29.1v-.1l.95-.47c.19-.1.28-.2.47-.29l.57-.28c.19-.1.47-.2.66-.38.2-.19.47-.28.66-.47.29-.2.48-.38.76-.57.1-.1.28-.19.38-.28l.38-.38c.19-.29.47-.48.66-.76.1-.1.19-.28.28-.38.1-.1.2-.28.29-.47.38-.57.66-1.33.85-2.08.19-.76.28-1.52.19-2.27-.1-.76-.2-1.52-.38-2.28-.1-.18-.1-.37-.19-.56-.1-.2-.1-.38-.19-.57-.19-.38-.28-.66-.47-1.04-.29-.66-.66-1.23-1.04-1.8-.38-.57-.76-1.04-1.04-1.51-.67-.95-1.33-1.7-1.8-2.18l-.76-.76.1-.1.19.2c.19.1.37.28.66.47.28.19.57.47.94.85l1.14 1.14c.38.47.85.94 1.23 1.51.38.57.85 1.14 1.14 1.9.37.66.66 1.41.94 2.17Zm-1.7-6.15c-.2-.19-.38-.47-.57-.66-.1-.48-.28-1.23-.57-1.99 2.37 1.33 4.64 2.56 6.34 3.4 0 .1 0 .1.1.2-1.52-.29-3.88-.76-5.3-.95Zm-1.99-6.06c.1-.75-.19-2.36 0-3.88l5.77 1.42 2.27 7-8.04-4.54Zm9.75 4.83-1.52-4.73c.29.47 2.46 2.36 2.46 2.36.38.57.1 2.18.1 2.18-.38-.28-1.04.19-1.04.19Zm2.27 5.2c.19-.28.28-.75.28-1.23.38.1.85.1 1.23.1.2.28.38.57.57.85-.76.19-1.42.28-2.08.28Zm3.03-4.06-2.27-.38-2.28-.38s.29-.1.76-.1H41.38c.1 0 .28 0 .38.1.09 0 .28.1.37.1.1 0 .29.09.38.09.29.1.48.19.67.19.66.19.85.28.85.38Zm.38-.76a4.42 4.42 0 0 0-.95-.47s-1.04-2.28-.85-4.74c0 0 .66.38 1.6.86.1.09.1.28.2.37.56.48.28 2.65 0 3.98Zm.94 2.65c-.1-.2-.19-.29-.28-.38h.19l.38.19c.09-.1.18-.1.18-.2h.76c.38.2.66.3.66.3l-1.89.09ZM46.3 56c.47 0 .94-.1 1.32-.2.48-.09.85-.18 1.23-.37h.1c-.48.28-1.33.57-2.37.76-.19 0-.28-.1-.28-.2Zm.66.85-.28-.28a7.87 7.87 0 0 0 2.74-1.04s.1 0 .1-.1c.18-.1.18-.38.18-.57l1.8-1.23c.29.1.57.1.66-.1.38-.28.2-1.03-.37-1.7l-.38-.37.75-.48-.56-.85c.19-.1.38-.28.56-.38 3.03 3.7 4.26 7.38 3.7 10.7-.29 2.46-5.12.56-8.9-3.6Zm6.81-7.57c.29.28.67.66 1.04 1.14.2.28.38.56.57.85.2.28.38.66.57.94l.57 1.14c.19.38.38.76.47 1.23.1.38.28.85.38 1.23.1.19.1.38.1.66 0 .2.09.38.09.66v1.23c0 .2 0 .38-.1.57-.1.2-.1.38-.19.48-.1.28-.28.56-.37.85-.1.1-.2.19-.2.28l-.18.19-.2.19c-.09 0-.09.1-.18.1l-.1.09-.1-.1.1-.1.29-.27c.1-.1.1-.2.19-.29.1-.1.1-.19.19-.28.1-.2.19-.48.28-.76.1-.28.1-.66.1-.95 0-.37 0-.75-.1-1.13-.1-.38-.1-.76-.28-1.14a24.5 24.5 0 0 0-2.37-5.3L53.21 49h.09l.1.1c.09 0 .18.1.37.19Z"/></svg>