<svg width="38" height="40" viewBox="0 0 38 40" fill="none" xmlns="http://www.w3.org/2000/svg">
<path d="M26.2095 3.84815C26.1568 3.1648 26.0729 2.54198 26.0798 1.91818C26.0798 1.71513 26.2876 1.47791 26.4603 1.3227C26.6817 1.12258 26.9637 0.990787 27.2408 0.819951L27.5999 1.5033C27.5218 1.04838 27.4476 0.715497 27.4125 0.377728C27.3872 0.127819 27.5101 -0.0127547 27.7891 0.000912188C29.0819 0.0477702 30.3054 0.325989 31.3474 1.13527C31.6459 1.3676 31.8733 1.6917 32.1328 1.97383L32.0548 2.06266C31.7806 1.84887 31.5055 1.63606 31.1962 1.39396C31.5611 1.88207 31.9279 2.30281 32.2118 2.77334C32.3946 3.09882 32.5206 3.45303 32.5845 3.82081C32.8158 4.97274 32.5563 5.35053 31.4137 5.61508C31.3136 5.63388 31.2241 5.68962 31.163 5.77128L31.8586 5.69611C31.684 6.15981 31.5494 6.5747 31.3708 6.97006C31.2332 7.27952 31.003 7.55091 30.8937 7.8672C30.7327 8.33187 30.5034 8.68428 29.9746 8.76336C30.5015 8.81705 30.7239 8.62669 30.9708 8.08001C31.2059 7.55383 31.4967 7.05206 31.7845 6.50051C33.0529 7.64657 33.5895 8.97715 33.2548 10.582C32.9894 11.856 33.2821 13.0733 33.5475 14.2916C33.7134 15.0638 34.0149 15.8087 34.2705 16.5594C34.4393 17.0543 34.9183 17.1714 35.3301 17.2486C35.9847 17.3706 36.2082 17.7962 36.1301 18.4542C36.0735 18.9423 35.9955 19.2117 35.4618 19.2234C35.4042 20.0561 35.3476 20.8683 35.291 21.6805L35.2042 21.7303C35.1144 21.4482 34.9779 21.17 34.9466 20.881C34.9125 20.5657 34.9769 20.2406 34.9993 19.899L34.1915 19.7213C33.9641 21.3018 32.8851 21.9763 31.4411 22.3366C32.3484 23.2522 32.846 24.3251 33.0782 25.5278C33.5231 27.8365 33.1455 30.0574 32.3231 32.2177C31.3357 34.8135 29.8107 37.0138 27.4925 38.608C27.4691 38.6246 27.4574 38.6597 27.3813 38.7788C34.2968 38.6392 36.2365 36.4098 38 35.1651C35.2386 38.168 32.641 39.1206 30.7259 39.5432C28.8107 39.9657 26.5744 40.1894 21.0814 39.7941C16.7231 39.4807 12.4399 38.7788 8.30015 37.3233C6.17807 36.5765 4.15063 35.6345 2.39248 34.1945C1.62658 33.562 0.944585 32.8454 0.486996 31.9444C-0.154994 30.6822 -0.169629 29.4063 0.486996 28.1587C1.32119 26.5772 2.69884 25.5737 4.29698 24.6443L3.41888 25.5873C1.48998 27.6676 1.41583 29.7772 3.22863 31.9502C4.11258 33.0094 5.24533 33.7621 6.43272 34.4376C5.51364 29.9695 6.89812 26.1486 9.59779 22.7085C10.1598 21.992 10.8974 21.3887 11.633 20.839C12.5248 20.1743 13.5551 19.8267 14.7386 20.0122C14.8927 19.5465 15.0449 19.0887 15.1874 18.6602L14.9923 18.6855C15.0557 17.6918 15.0674 16.7185 15.1874 15.7569C15.4196 13.9021 15.6323 12.0415 16.3689 10.2999C16.6138 9.72004 16.9358 9.17336 17.2236 8.61107C17.2451 8.56811 17.3065 8.52809 17.3017 8.49099C17.2246 7.81351 17.7827 7.64267 18.1983 7.36055C18.5392 7.11175 18.8926 6.88042 19.2569 6.66744C19.6179 6.4722 20.0257 6.35993 20.3887 6.16762C20.8707 5.91185 21.418 5.69806 21.7829 5.31832C23.0064 4.06389 24.425 3.52502 26.2095 3.84815ZM31.2576 27.776C31.5133 30.7671 30.2449 33.2203 28.4887 35.531C28.5521 35.5154 28.5863 35.5183 28.6009 35.5017C30.7132 33.0612 31.8001 30.2565 31.5718 27.0087C31.5172 26.1426 31.2245 25.3085 30.7259 24.5984C30.0673 23.6622 28.7433 23.2444 27.6828 23.6349V31.1605C27.2925 31.2581 26.9754 31.3723 26.6603 30.9838C26.4652 30.7427 26.0222 30.4811 25.7822 30.5484C25.3734 30.6617 25.1968 30.4293 24.9929 30.2556C24.8192 30.1023 24.4465 29.8651 24.9021 29.5722C24.9568 29.5371 24.9538 29.3965 24.9597 29.3028C25.0212 28.2807 25.0865 27.2586 25.1363 26.2355C25.1558 25.845 25.1363 25.4546 25.1363 25.0016L24.7177 25.3267L24.6631 25.271C24.827 25.0797 24.9896 24.888 25.1509 24.696C24.9659 24.7643 24.799 24.8742 24.6631 25.0172C23.5966 26.0487 22.7497 27.2852 22.1732 28.6526C21.3234 30.6304 20.8765 32.6726 21.3673 34.8271C21.7244 36.3998 22.9069 37.4492 24.3323 37.4629C25.3148 37.4707 26.1705 37.0831 26.9501 36.5248C28.4575 35.4451 29.4917 33.9866 30.242 32.3114C30.895 30.8877 31.2411 29.3424 31.2576 27.776ZM21.0053 27.9166L20.9175 27.7926C20.7009 27.9234 20.455 28.022 20.2726 28.1899C19.2901 29.088 18.6032 30.1618 18.5086 31.5334C18.5086 31.5646 18.4832 31.5949 18.4803 31.6261C18.4266 32.085 18.1193 32.1006 17.7671 32.0352L16.9631 31.8858C16.9036 32.4979 16.6655 32.9021 16.1767 33.1236C15.6879 33.3452 15.2254 33.3257 14.8527 32.8308L14.6966 33.0387C14.8918 33.1617 15.1035 33.2564 15.2615 33.4116C15.6089 33.7514 15.5464 34.0462 15.1562 34.3283C14.9757 34.4618 14.8293 34.6361 14.7288 34.8369C14.56 35.1844 14.3239 35.1737 14.0546 35.0214C13.7444 34.8457 13.4507 34.6436 13.2536 34.5177C12.9482 35.0058 12.5628 35.2733 12.1901 35.5417C11.794 35.8277 11.3696 36.0747 10.9042 36.3734C14.3015 37.4717 17.7183 38.1033 21.1946 38.4342C18.8969 34.9199 19.6696 31.4231 21.0053 27.9166ZM8.47382 29.2715L8.58212 29.1251L8.85433 29.2276C8.96068 28.9279 9.13923 28.6673 9.12166 28.4213C9.08166 27.858 9.29143 27.7155 9.79683 27.9175C9.78122 27.7399 9.70706 27.5339 9.76658 27.4831C10.1432 27.16 10.2486 26.6426 10.7422 26.3702C11.3579 26.0325 11.873 25.5063 12.4233 25.0504C12.5522 24.9583 12.6507 24.8298 12.7063 24.6814C12.8926 23.9004 13.0507 23.1195 13.2302 22.2868C10.8096 22.8032 9.69243 24.7615 8.58505 26.7451C8.93305 25.7185 9.47753 24.7696 10.1881 23.9512C11.0379 22.9623 11.9862 22.1071 13.4078 22.0798C13.5258 22.0798 13.64 21.9168 13.7561 21.8299C13.6373 21.7528 13.496 21.7184 13.3551 21.7323C13.2565 21.74 13.1586 21.7554 13.0624 21.7782C11.8965 22.0427 11.031 22.7661 10.273 23.633C8.92751 25.1832 8.07867 26.9892 7.64157 28.9904C7.31863 30.4654 7.20252 31.9542 7.79671 33.4019C8.13331 34.2219 8.79579 34.6065 9.65048 34.6817C9.83878 34.6983 10.03 34.6817 10.2193 34.6817L10.2271 34.7549L9.56754 34.8525L9.61145 34.9706C10.671 34.8838 11.6857 34.7061 12.2653 33.5864L12.7765 33.7914C12.3569 33.3335 11.9873 32.8322 11.674 32.2958C11.4906 31.9815 11.2955 31.8429 10.912 31.8419C10.3842 31.8419 9.85634 31.7316 9.35095 31.6711C9.35095 31.5041 9.33729 31.4631 9.35095 31.4407C9.57925 31.1078 9.80463 30.7729 10.0427 30.4469C10.3052 30.0876 10.2378 29.9022 9.8339 29.7928C9.6607 29.731 9.49402 29.6522 9.33631 29.5576C9.23874 29.6093 9.08166 29.746 9.02215 29.7128C8.82667 29.5822 8.64317 29.4346 8.47382 29.2715ZM30.2917 10.707C29.7171 10.9022 29.1404 11.0701 28.5814 11.2859C28.0448 11.4928 27.5403 11.7896 26.9959 11.9692C26.3783 12.1742 25.7997 12.4095 25.3187 12.9523C26.0017 13.0782 26.6291 13.2197 27.2623 13.3017C27.7647 13.3672 28.0291 13.6873 27.9296 14.1715C27.8808 14.4078 27.7891 14.7251 27.8965 14.8861C28.1774 15.3098 28.557 15.6671 28.8389 15.9853C29.6888 15.7901 30.4147 15.2151 31.2313 15.6983C30.9279 14.1052 30.6274 12.4925 30.2917 10.707ZM19.3379 23.4104C19.6052 23.7032 19.8628 23.5929 20.097 23.3899C20.5119 23.0306 20.9204 22.6642 21.3224 22.2907C21.938 21.7186 22.541 21.1329 23.1586 20.5628C23.3762 20.3675 23.6211 20.1938 23.9694 19.9195C22.4083 19.9195 20.9995 19.9361 19.5935 19.9097C19.1515 19.9009 18.9769 20.0883 18.9184 20.4818C18.7925 21.3154 18.6598 22.1472 18.533 22.9809C18.4617 23.4455 18.3964 23.9122 18.3095 24.5145L19.3379 23.4104ZM24.224 17.5443C24.2172 17.4838 24.2094 17.4233 24.2026 17.3628C23.382 17.9251 22.6737 17.682 22.0102 17.1353C21.8093 16.9703 21.62 16.7956 21.4248 16.6189C21.0112 16.2343 20.6024 15.8457 20.1565 15.4289C19.6023 16.6238 19.0403 17.762 19.0647 19.1004C19.253 19.1004 19.4286 19.1063 19.6042 19.1004C21.5556 19.0243 23.502 18.9423 25.4514 18.871C26.2193 18.8427 26.5032 18.5157 26.4154 17.723C25.8456 19.118 25.8612 18.791 24.6592 18.3146L25.5949 17.4809C25.5585 17.4689 25.5194 17.4678 25.4824 17.4779C25.4455 17.488 25.4123 17.5087 25.387 17.5375C25.077 17.8611 24.7031 18.1166 24.289 18.2878C23.875 18.4591 23.4299 18.5423 22.982 18.5323C22.8376 18.5323 22.6171 18.3478 22.5693 18.2023C22.4961 17.9758 22.6796 17.9094 22.9118 17.8675C23.3596 17.7933 23.7899 17.6556 24.224 17.5443ZM28.0389 21.1807C28.2087 21.3076 28.2555 21.376 28.3023 21.376C29.0682 21.3633 29.8293 21.376 30.5337 21.7411C30.5614 21.7562 30.5933 21.7617 30.6244 21.7567C30.9874 21.6679 31.3474 21.5702 31.7103 21.4833C32.6363 21.2627 33.3739 20.4593 33.3582 19.6198C33.3582 19.448 33.1953 19.1873 33.0421 19.1239C31.5786 18.5166 30.1024 17.9397 28.6263 17.3667C27.9267 17.0943 27.3803 17.4799 27.4457 18.1838C27.674 17.4497 28.0857 17.2759 28.8116 17.6068C29.0926 17.7337 29.3697 17.8675 29.6507 17.9973C30.2566 18.2667 30.3473 18.4141 30.2537 19.0653C30.2331 19.2091 30.1793 19.3461 30.0966 19.4655C29.5805 20.1723 29.1629 21.0031 28.0389 21.1807ZM26.6261 24.043L26.4427 23.9649C26.3325 24.1484 26.15 24.3222 26.1227 24.5164C25.9168 26.095 25.7393 27.6774 25.5617 29.2598C25.549 29.3721 25.5666 29.5449 25.6388 29.5995C25.9372 29.8375 26.2555 30.0495 26.59 30.2331C27.1315 30.5191 27.235 30.4391 27.1832 29.8114C27.1306 29.1642 27.0593 28.5179 26.9969 27.8707C26.8733 26.5997 26.7497 25.3251 26.6261 24.0469V24.043ZM18.1378 25.356L17.5592 28.6751C17.7446 28.6751 17.9251 28.7268 17.9778 28.6673C18.3008 28.2934 18.6715 27.9302 18.8774 27.4958C19.0832 27.0614 19.0179 26.4522 19.8072 26.7412C19.6618 26.3244 19.5379 25.97 19.4003 25.5776L19.2393 25.9349L18.1378 25.356ZM11.7267 28.8283C11.4477 29.3613 10.6535 29.4199 10.7061 30.1716C10.712 30.2643 10.511 30.3668 10.4222 30.4762C10.3537 30.5612 10.3071 30.6618 10.2866 30.769C10.2495 31.0453 10.2388 31.3245 10.2144 31.632L11.0457 31.6896C11.2691 31.2015 11.4291 30.771 11.6574 30.3815C11.8857 29.992 12.1775 29.6581 12.4653 29.2667L11.7267 28.8283ZM30.2888 16.9401L32.9768 18.2677L33.0568 18.1808L31.5035 16.2401L30.2888 16.9401ZM10.7315 26.9579C10.751 27.0282 10.7715 27.0985 10.791 27.1688C11.4262 26.3429 11.9892 27.3015 12.637 27.0946V25.3667L10.7315 26.9579ZM14.683 27.326C15.041 27.3709 15.282 27.4236 15.5221 27.4236C15.6372 27.4236 15.8401 27.3191 15.8509 27.242C15.9435 26.5772 16.0001 25.9085 16.0674 25.2417L15.8489 25.1734L14.683 27.326ZM15.5123 27.6627C14.643 27.448 14.6342 27.4616 14.3415 28.3822C14.2137 28.7864 14.3191 29.0451 14.7805 29.1749C14.8518 29.005 14.9971 28.7415 14.9659 28.719C14.68 28.5101 14.9327 28.3803 15.0225 28.2514C15.1552 28.0552 15.324 27.8814 15.5123 27.6627ZM24.384 22.5796C24.0631 22.2048 23.7108 22.238 23.3791 22.4605C22.26 23.2112 21.1517 23.9776 20.0443 24.7429C19.8316 24.8903 19.6364 25.0631 19.4325 25.2242C19.6372 25.1766 19.8282 25.0824 19.9906 24.9489C21.0941 24.1777 22.1927 23.3987 23.3079 22.645C23.4747 22.5328 23.8035 22.4332 23.9235 22.5172C24.4982 22.9213 24.7324 22.4439 25.0299 22.1267L24.384 22.5796ZM11.9023 27.9907L12.5628 28.2885L12.6604 27.2957L12.0594 27.2439C11.9999 27.5134 11.957 27.7291 11.9023 27.9907ZM17.2353 22.7583C17.3739 22.4312 17.4968 22.1813 17.5817 21.9197C17.6071 21.8406 17.5271 21.7245 17.4949 21.6269C17.4022 21.6679 17.2802 21.6854 17.2207 21.7557C16.9875 22.0281 16.8685 22.3239 17.2353 22.7583ZM10.1383 28.2875L9.65048 28.5931C10.0212 28.5862 9.77536 29.4043 10.3578 29.1583C10.2817 28.8469 10.2105 28.5706 10.1383 28.2875Z" fill="#88B234"/>
</svg>
