<svg width="135" height="40" viewBox="0 0 135 40" fill="none" xmlns="http://www.w3.org/2000/svg">
<path d="M13.4486 35.9829L22.0417 35.9829L22.0417 40L0 40L9.66402e-08 31.8959C1.2691e-07 29.3576 1.15274 28.0884 3.45821 28.0884L9.99038 28.0884C11.9 28.0884 13.0178 28.9384 13.3438 30.6384L22.0417 26.9706L22.0417 31.3021L13.4486 34.6555L13.4486 35.9829ZM3.07396 35.9829L10.4794 35.9829L10.4794 33.0836C10.4794 32.711 10.4212 32.4548 10.3048 32.3151C10.165 32.1754 9.90888 32.1055 9.53627 32.1055L4.01711 32.1055C3.64451 32.1055 3.39999 32.1754 3.28355 32.3151C3.14383 32.4548 3.07396 32.711 3.07396 33.0836L3.07396 35.9829Z" fill="#88B234"/>
<path d="M18.0246 18.0041L13.3089 18.0041C12.9363 18.0041 12.6917 18.074 12.5753 18.2137C12.4356 18.3535 12.3657 18.6096 12.3657 18.9822L12.3657 21.8117C12.3657 24.2103 11.2013 25.4096 8.87258 25.4096L3.45821 25.4096C1.15274 25.4096 1.88985e-07 24.1521 2.18977e-07 21.637L2.64797e-07 17.7946C2.94789e-07 15.2795 1.15274 14.022 3.45821 14.022L6.53217 14.022L6.53217 18.074L4.01711 18.074C3.64451 18.074 3.39999 18.1439 3.28355 18.2836C3.14383 18.4233 3.07396 18.6795 3.07396 19.0521L3.07396 20.3795C3.07396 20.7754 3.14383 21.0432 3.28355 21.1829C3.39999 21.3226 3.64451 21.3925 4.01711 21.3925L8.4534 21.3925C8.826 21.3925 9.08217 21.3226 9.22189 21.1829C9.33833 21.0432 9.39655 20.7754 9.39655 20.3795L9.39655 17.6199C9.39655 15.1747 10.5376 13.9521 12.8198 13.9521L18.5835 13.9521C20.889 13.9521 22.0417 15.2213 22.0417 17.7596L22.0417 21.5322C22.0417 24.0706 20.889 25.3397 18.5835 25.3397L15.5445 25.3397L15.5445 21.3226L18.0246 21.3226C18.3972 21.3226 18.6534 21.2528 18.7931 21.113C18.9095 20.9733 18.9678 20.7055 18.9678 20.3096L18.9678 18.9822C18.9678 18.6096 18.9095 18.3535 18.7931 18.2137C18.6534 18.074 18.3972 18.0041 18.0246 18.0041Z" fill="#88B234"/>
<path d="M18.0246 4.05205L13.3089 4.05205C12.9363 4.05205 12.6917 4.12191 12.5753 4.26164C12.4356 4.40137 12.3657 4.65753 12.3657 5.03014L12.3657 7.85958C12.3657 10.2582 11.2013 11.4575 8.87258 11.4575L3.45821 11.4575C1.15274 11.4575 3.55362e-07 10.2 3.85354e-07 7.68491L4.31174e-07 3.84247C4.61166e-07 1.3274 1.15274 0.0698776 3.45821 0.0698777L6.53217 0.0698777L6.53217 4.12192L4.01711 4.12192C3.64451 4.12192 3.39999 4.19178 3.28355 4.3315C3.14383 4.47123 3.07396 4.72739 3.07396 5.09999L3.07396 6.42739C3.07396 6.82328 3.14383 7.09108 3.28355 7.23081C3.39999 7.37054 3.64451 7.4404 4.01711 7.4404L8.4534 7.4404C8.826 7.4404 9.08217 7.37054 9.22189 7.23081C9.33833 7.09108 9.39655 6.82328 9.39655 6.42739L9.39655 3.6678C9.39655 1.22261 10.5376 1.15698e-05 12.8198 1.1597e-05L18.5835 1.16657e-05C20.889 1.16932e-05 22.0417 1.26919 22.0417 3.80753L22.0417 7.58012C22.0417 10.1185 20.889 11.3876 18.5835 11.3876L15.5445 11.3876L15.5445 7.37054L18.0246 7.37054C18.3972 7.37054 18.6534 7.30067 18.7931 7.16095C18.9095 7.02122 18.9678 6.75341 18.9678 6.35753L18.9678 5.03014C18.9678 4.65753 18.9095 4.40137 18.7931 4.26164C18.6534 4.12191 18.3972 4.05205 18.0246 4.05205Z" fill="#88B234"/>
<path d="M39.9002 15.5681V7.49891C39.9002 6.84686 39.7779 6.41895 39.5334 6.21519C39.2889 5.97066 38.8202 5.8484 38.1274 5.8484H32.5646V17.2186H38.1274C38.8202 17.2186 39.2889 17.1167 39.5334 16.9129C39.7779 16.6684 39.9002 16.2201 39.9002 15.5681ZM39.9002 32.5011V24.004C39.9002 23.352 39.7779 22.924 39.5334 22.7203C39.2889 22.4758 38.8202 22.3535 38.1274 22.3535H32.5646V34.1516H38.1274C38.8202 34.1516 39.2889 34.0497 39.5334 33.8459C39.7779 33.6014 39.9002 33.1531 39.9002 32.5011ZM25.5347 0.71349H40.2059C44.648 0.71349 46.869 2.73078 46.869 6.76536V15.079C46.869 17.6465 46.0132 19.2155 44.3016 19.786C46.0132 20.3566 46.869 21.8237 46.869 24.1874V33.2346C46.869 37.2692 44.648 39.2865 40.2059 39.2865H25.5347V0.71349Z" fill="#C2CAD6"/>
<path d="M52.8249 0.71349H59.8548V39.2865H52.8249V0.71349Z" fill="#C2CAD6"/>
<path d="M88.6872 0.71349L80.7403 19.9083L88.626 39.2865H81.0459L73.4047 19.9083L81.107 0.71349H88.6872ZM66.0691 39.2865V0.71349H73.099V39.2865H66.0691Z" fill="#C2CAD6"/>
<path d="M99.1881 33.9071H110.925V39.2865H92.0971V0.71349H110.436V6.09293H99.1881V16.7907H108.663V22.2312H99.1881V33.9071Z" fill="#C2CAD6"/>
<path d="M127.187 32.2565V24.004C127.187 23.352 127.065 22.924 126.82 22.7203C126.576 22.4758 126.128 22.3535 125.475 22.3535H120.524C116.326 22.3535 114.228 20.3158 114.228 16.2405V6.76536C114.228 2.73078 116.428 0.71349 120.83 0.71349H127.554C131.955 0.71349 134.156 2.73078 134.156 6.76536V12.1448H127.065V7.74343C127.065 7.09138 126.943 6.66347 126.698 6.45971C126.454 6.21519 126.005 6.09293 125.353 6.09293H123.03C122.337 6.09293 121.869 6.21519 121.624 6.45971C121.38 6.66347 121.257 7.09138 121.257 7.74343V15.5069C121.257 16.159 121.38 16.6073 121.624 16.8518C121.869 17.0556 122.337 17.1574 123.03 17.1574H127.86C132.139 17.1574 134.278 19.1544 134.278 23.1482V33.2346C134.278 37.2692 132.057 39.2865 127.615 39.2865H121.013C116.571 39.2865 114.35 37.2692 114.35 33.2346V27.9163H121.38V32.2565C121.38 32.9086 121.502 33.3569 121.747 33.6014C121.991 33.8052 122.46 33.9071 123.153 33.9071H125.475C126.128 33.9071 126.576 33.8052 126.82 33.6014C127.065 33.3569 127.187 32.9086 127.187 32.2565Z" fill="#C2CAD6"/>
</svg>
