<svg width="30" height="24" viewBox="0 0 30 24">
<path d="M15.3069 0C15.3707 0.0184424 15.4339 0.0391711 15.4983 0.0548701C15.7371 0.113093 15.9571 0.205306 16.133 0.384243C16.3334 0.587567 16.4412 0.831434 16.4664 1.11508C16.4866 1.34371 16.4755 1.56639 16.3776 1.77916C16.2605 2.03355 16.0799 2.22651 15.8294 2.35316C15.7277 2.40468 15.6244 2.45285 15.5105 2.50802C15.5526 2.63971 15.5894 2.76423 15.6337 2.88601C15.6418 2.90842 15.678 2.92473 15.7048 2.93494C15.7257 2.94287 15.7517 2.93677 15.7755 2.93723C16.2154 2.94546 16.6561 2.94012 17.095 2.96497C17.6668 2.99758 18.2262 3.10549 18.7635 3.31263C18.7816 3.31949 18.7991 3.32787 18.8312 3.34189C18.8203 3.41475 18.8102 3.48791 18.7982 3.56061C18.7677 3.74351 18.7373 3.92794 18.7044 4.11129C18.6879 4.20427 18.6861 4.20579 18.5902 4.2061C18.2332 4.20701 17.8763 4.2061 17.5194 4.20686C17.1981 4.20808 16.8767 4.20533 16.5557 4.21524C16.021 4.23155 15.4868 4.26234 14.9559 4.33138C13.9919 4.45667 13.0586 4.69337 12.1784 5.11724C12.1504 5.13066 12.1207 5.14041 12.0841 5.15489C12.0671 5.11877 12.0508 5.08783 12.0385 5.05567C11.9501 4.83893 11.8623 4.62209 11.775 4.40515C11.7284 4.28947 11.7293 4.28901 11.8323 4.21067C12.4347 3.75433 13.1085 3.44676 13.8346 3.248C14.2093 3.14528 14.5906 3.0744 14.9745 3.01603C15.0994 2.99697 15.1116 2.97548 15.0951 2.85248C15.0735 2.69397 14.9974 2.56792 14.865 2.47952C14.7829 2.4245 14.6945 2.37892 14.6101 2.3271C14.2919 2.13064 14.0739 1.8601 14.0022 1.48561C13.9339 1.12926 14.0175 0.807352 14.2389 0.523552C14.4326 0.274503 14.6805 0.10593 14.9943 0.0405429C15.0356 0.0294477 15.0763 0.0160134 15.1161 0.000304834L15.3069 0ZM11.7181 17.6269C11.8608 17.6269 12.0034 17.6296 12.1461 17.6269C12.6098 17.6162 13.0738 17.6116 13.5369 17.5892C14.1027 17.5613 14.6681 17.5225 15.2329 17.4783C15.7507 17.4377 16.267 17.3924 16.7823 17.3333C17.3092 17.2723 17.835 17.2006 18.3592 17.1199C19.3823 16.9626 20.3853 16.718 21.3742 16.4145C23.3968 15.7945 25.2757 14.8707 27.0528 13.7303C27.1344 13.6779 27.1425 13.671 27.1077 13.5758C27.0575 13.434 27 13.2949 26.9355 13.1591C26.5171 12.2956 26.1157 11.423 25.6704 10.5736C24.8481 9.0054 23.7808 7.6242 22.435 6.46598C21.7298 5.85906 20.9616 5.35334 20.0995 4.99607C19.2599 4.64589 18.3595 4.46462 17.4499 4.46261C16.9901 4.46046 16.5305 4.4832 16.0732 4.53075C15.6599 4.57449 15.2459 4.61717 14.8358 4.68316C13.9793 4.82095 13.1353 5.02738 12.3118 5.30045C11.377 5.61047 10.4693 5.98328 9.61742 6.48275C8.07258 7.38749 6.87462 8.62268 6.06938 10.2293C5.49804 11.3686 5.21298 12.5776 5.20262 13.8513C5.20049 14.101 5.20582 14.3516 5.22592 14.6003C5.2515 14.916 5.28302 15.2322 5.33465 15.5453C5.40637 15.9791 5.4991 16.4094 5.58286 16.8408C5.60311 16.9451 5.61011 16.9518 5.71869 16.9738C6.81721 17.1957 7.91954 17.396 9.03618 17.5026C9.50931 17.5484 9.98319 17.5883 10.4577 17.613C10.8772 17.6349 11.2979 17.632 11.7181 17.64V17.6269ZM11.0523 7.86151C12.4228 7.58091 13.9176 8.14257 14.6817 9.37867C14.9725 9.84918 15.128 10.3628 15.1775 10.913C15.2384 11.5989 15.1234 12.2507 14.7924 12.8547C14.2861 13.7783 13.5026 14.3511 12.4824 14.5736C11.3729 14.8158 10.3646 14.5651 9.49225 13.8323C8.84431 13.288 8.46301 12.5848 8.33312 11.7483C8.30769 11.5844 8.30526 11.4169 8.29216 11.2511C8.27328 9.67939 9.38474 8.20292 11.0523 7.86151ZM22.5044 11.9998C22.1872 12.1674 21.8448 12.2298 21.4827 12.2101C21.2026 12.1949 20.9303 12.1578 20.6727 12.0476C20.0106 11.7646 19.5996 11.2653 19.4286 10.5692C19.3125 10.1053 19.3538 9.61596 19.5459 9.1781C19.738 8.74024 20.07 8.37871 20.4898 8.15034C20.8678 7.94244 21.2739 7.86502 21.7041 7.8952C22.3557 7.94092 22.8789 8.22503 23.2725 8.74157C23.5582 9.11575 23.6955 9.54404 23.692 10.1808C23.6633 10.8978 23.2969 11.5793 22.5044 11.9998ZM5.75188 17.4142C5.77686 17.5584 5.78889 17.707 5.8335 17.8451C5.93111 18.1465 6.03512 18.4467 6.15496 18.74C6.67574 20.0134 7.43515 21.1177 8.49271 22.0073C9.51098 22.8634 10.666 23.4344 11.9742 23.6955C12.7339 23.8471 13.5014 23.9261 14.2725 23.9714C14.787 24.0035 15.3028 24.0086 15.8178 23.9866C16.4392 23.9603 17.0588 23.9029 17.6744 23.8144C18.4972 23.6922 19.3093 23.5064 20.1035 23.2588C21.1984 22.9189 22.2448 22.4707 23.2099 21.8445C24.8181 20.8006 25.9948 19.3983 26.7085 17.6136C26.9646 16.9735 27.1219 16.3071 27.1939 15.6214C27.2384 15.1983 27.2325 14.7735 27.2183 14.3488C27.2169 14.3069 27.2057 14.2653 27.1962 14.2071C27.1317 14.2446 27.0808 14.2732 27.0307 14.3034C26.0602 14.8902 25.0551 15.4179 24.021 15.8834C21.5752 16.9817 19.0246 17.706 16.3599 18.0151C15.7779 18.0826 15.1933 18.1335 14.6087 18.1718C14.1344 18.2022 13.6579 18.2175 13.1827 18.2138C12.5646 18.2089 11.9463 18.1861 11.3287 18.1567C10.8858 18.1354 10.4435 18.1012 10.0018 18.0539C9.47063 17.9965 8.94101 17.9226 8.4117 17.8482C7.65031 17.7415 6.89731 17.5935 6.14689 17.429L5.76117 17.3452C5.7566 17.3769 5.74884 17.3966 5.75188 17.4142ZM27.4208 8.06712C27.6594 7.93894 27.8097 7.74308 27.8527 7.47483C27.8696 7.36497 27.8739 7.25355 27.8656 7.14271C27.8504 6.9243 27.8504 6.70802 27.885 6.49113C27.9037 6.37026 27.9078 6.36112 28.0331 6.3596C28.1717 6.35777 28.3112 6.36402 28.449 6.35213C28.9008 6.3128 29.2297 5.84305 29.1227 5.42238C29.02 5.01924 28.5998 4.75282 28.1915 4.83451C27.8081 4.91072 27.5684 5.25671 27.5609 5.55956C27.5577 5.68881 27.5538 5.82979 27.5021 5.9438C27.3901 6.19148 27.3599 6.44434 27.3768 6.70924C27.387 6.87141 27.3966 7.03358 27.4042 7.19591C27.4099 7.31494 27.355 7.40411 27.252 7.45852C27.1639 7.50377 27.0736 7.54447 26.9814 7.58045C26.8629 7.62831 26.864 7.6245 26.7796 7.53351C26.5317 7.26587 26.2893 6.99273 26.0316 6.73469C25.59 6.29268 25.0988 5.91073 24.5425 5.619C24.4871 5.59004 24.4297 5.56459 24.3665 5.53441L23.2931 6.84123C24.6901 8.17976 25.8714 9.65851 26.6479 11.4476L28.4522 10.3285L27.2325 8.16299C27.3091 8.12382 27.3659 8.09684 27.4213 8.06712H27.4208ZM3.74122 9.85711C3.68123 9.75041 3.62824 9.6393 3.57128 9.53063C3.51631 9.42546 3.46804 9.31557 3.40241 9.21741C3.31927 9.09304 3.20552 9.02323 3.04243 9.03055C2.80107 9.04137 2.55895 9.03451 2.31713 9.03238C2.22485 9.03162 2.21343 9.01927 2.21267 8.92889C2.21176 8.81 2.22059 8.69066 2.2148 8.57193C2.21024 8.48185 2.20156 8.38903 2.17354 8.30367C2.06694 7.97994 1.72569 7.69766 1.23765 7.80908C0.92152 7.88133 0.565954 8.20125 0.66265 8.70529C0.71016 8.95297 0.841575 9.14501 1.09451 9.22884C1.34226 9.31161 1.5888 9.39848 1.83838 9.47561C2.14963 9.57163 2.46408 9.65393 2.79543 9.59632C2.79924 9.59556 2.80335 9.59632 2.80731 9.59632C2.88345 9.58504 2.93157 9.61918 2.97177 9.68427C3.14435 9.96451 3.31957 10.2431 3.49743 10.5201C3.53276 10.5754 3.54022 10.6232 3.51525 10.6863C3.26962 11.3038 3.08887 11.939 3.02446 12.6026C2.994 12.9105 2.97314 13.2188 3.00268 13.5288C3.0106 13.6122 3.03801 13.6543 3.11887 13.6812C3.63402 13.8513 4.14735 14.0265 4.66158 14.1995C4.69336 14.2077 4.7256 14.2141 4.75813 14.2185C4.78188 14.0356 4.80503 13.8631 4.82619 13.6905C4.89898 13.1008 4.96218 12.5098 5.047 11.9225C5.09551 11.5933 5.16267 11.2672 5.24815 10.9457C5.36221 10.5127 5.57128 10.1183 5.81934 9.74843C6.07547 9.36648 6.3482 8.9958 6.61346 8.62055C6.63752 8.58641 6.65915 8.55059 6.68671 8.50837L5.9005 7.8987C5.85162 7.92918 5.81462 7.95235 5.77868 7.97643C5.39572 8.23261 5.04932 8.5397 4.74899 8.88926C4.47185 9.2104 4.21237 9.54648 3.94512 9.87601C3.91817 9.90923 3.89106 9.94215 3.84965 9.99276C3.80411 9.9356 3.76559 9.90039 3.74122 9.85711Z" />
</svg>
