<svg width="68" height="24" viewBox="0 0 68 24">
  <path d="M34.123 7.41166L37.2991 7.21232C37.3684 7.72858 37.5085 8.12162 37.7195 8.39142C38.0642 8.82875 38.5555 9.04742 39.1934 9.04742C39.6694 9.04742 40.0366 8.93587 40.2952 8.71278C40.4136 8.62015 40.5097 8.5022 40.5766 8.36758C40.6435 8.23295 40.6794 8.08507 40.6818 7.93476C40.6798 7.79066 40.6463 7.64873 40.5837 7.51893C40.5211 7.38912 40.4309 7.27458 40.3193 7.18333C40.0777 6.96265 39.5079 6.75365 38.6099 6.55633C37.1457 6.22773 36.1015 5.7904 35.4773 5.24434C35.1735 4.98992 34.931 4.67036 34.7677 4.30938C34.6043 3.9484 34.5244 3.55527 34.5338 3.15917C34.5361 2.5994 34.7042 2.05288 35.017 1.58864C35.3742 1.06541 35.8788 0.660066 36.4667 0.424041C37.111 0.141347 37.997 0 39.1245 0C40.505 0 41.5576 0.256921 42.2825 0.770764C43.0073 1.28461 43.4386 2.10128 43.5764 3.22078L40.4293 3.40441C40.3487 2.92117 40.1732 2.5676 39.9025 2.3437C39.6319 2.1198 39.2614 2.00826 38.7911 2.00906C38.4033 2.00906 38.1109 2.09242 37.9152 2.25672C37.8228 2.3278 37.7481 2.41933 37.6969 2.52413C37.6458 2.62894 37.6196 2.74416 37.6204 2.86077C37.6234 2.95126 37.6466 3.03993 37.6884 3.12023C37.7303 3.20053 37.7896 3.2704 37.8621 3.32468C38.0191 3.46723 38.3924 3.60012 38.982 3.72335C40.4413 4.03745 41.4884 4.35558 42.123 4.67774C42.7577 4.9999 43.2167 5.39897 43.5002 5.87496C43.7896 6.35782 43.9389 6.91163 43.9315 7.47448C43.935 8.15601 43.7352 8.8231 43.3577 9.39052C42.9647 9.98214 42.4058 10.4445 41.7509 10.7194C41.0623 11.0214 40.1949 11.1725 39.1487 11.1725C37.3116 11.1725 36.0391 10.8189 35.3311 10.1117C34.6232 9.40461 34.2205 8.50458 34.123 7.41166ZM1.61441 10.9912V0.182422H7.17889C8.2106 0.182422 8.99909 0.270613 9.54434 0.446995C10.0814 0.618541 10.5458 0.964672 10.8636 1.43038C11.2095 1.94729 11.3856 2.55921 11.3674 3.18091C11.3814 3.72345 11.2477 4.2596 10.9808 4.73211C10.7246 5.17013 10.3618 5.53625 9.9261 5.79644C9.55982 5.99847 9.16455 6.14272 8.75425 6.2241C9.06125 6.31451 9.35375 6.44835 9.62286 6.62156C9.82286 6.78781 10.0029 6.97674 10.1593 7.18454C10.3352 7.39106 10.491 7.61397 10.6244 7.8502L12.2408 10.9912H8.46793L6.68478 7.68469C6.45846 7.25702 6.25711 6.97916 6.08073 6.8511C5.84038 6.68454 5.55405 6.59712 5.26164 6.60103H4.96445V10.9912H1.61441ZM4.96445 4.55935H6.37551C6.67413 4.53705 6.97012 4.48772 7.25983 4.41196C7.47633 4.37042 7.66942 4.24931 7.80106 4.07249C7.94027 3.89387 8.01442 3.67313 8.01127 3.44669C8.02035 3.29637 7.99517 3.14594 7.93761 3.00677C7.88006 2.86759 7.79165 2.74332 7.67904 2.64331C7.45836 2.45646 7.04318 2.36303 6.4335 2.36303H4.96445V4.55935ZM0.856934 20.2404L4.03301 20.0423C4.10228 20.5585 4.24242 20.9516 4.45343 21.2214C4.79411 21.6587 5.28661 21.8774 5.93093 21.8774C6.40692 21.8774 6.77418 21.7654 7.03271 21.5415C7.15111 21.4489 7.24728 21.331 7.31417 21.1963C7.38106 21.0617 7.41698 20.9138 7.4193 20.7635C7.41717 20.6194 7.38364 20.4776 7.32105 20.3478C7.25845 20.218 7.1683 20.1034 7.05687 20.0121C6.81525 19.7914 6.24544 19.5828 5.34742 19.3863C3.88321 19.0561 2.83901 18.6187 2.21483 18.0743C1.91113 17.8196 1.66863 17.4998 1.50531 17.1386C1.34198 16.7775 1.262 16.3842 1.27131 15.9879C1.27398 15.4282 1.44211 14.8818 1.75455 14.4174C2.11175 13.8942 2.61633 13.4888 3.20426 13.2528C3.84858 12.9701 4.73451 12.8288 5.86207 12.8288C7.24252 12.8288 8.29517 13.0857 9.02003 13.5995C9.74488 14.1134 10.1762 14.93 10.3139 16.0495L7.17285 16.2344C7.09231 15.7511 6.91673 15.3972 6.64612 15.1725C6.37551 14.9478 6.00543 14.8374 5.53588 14.8414C5.14849 14.8414 4.85653 14.922 4.66001 15.0831C4.56757 15.1541 4.49285 15.2457 4.44171 15.3505C4.39056 15.4553 4.36439 15.5705 4.36524 15.6871C4.36799 15.7778 4.39114 15.8667 4.43297 15.9472C4.4748 16.0278 4.53424 16.0978 4.60686 16.1522C4.76391 16.2948 5.13721 16.4273 5.72676 16.5497C7.18614 16.8638 8.23315 17.1819 8.86781 17.5041C9.50246 17.8262 9.96153 18.2253 10.245 18.7013C10.5342 19.1842 10.6835 19.738 10.6763 20.3008C10.6799 20.9824 10.4801 21.6495 10.1025 22.2169C9.70954 22.8085 9.15055 23.2708 8.49571 23.5458C7.8071 23.8478 6.93969 23.9988 5.89348 23.9988C4.05637 23.9988 2.78384 23.6452 2.0759 22.9381C1.36796 22.2309 0.961635 21.3317 0.856934 20.2404ZM20.5489 19.3935L23.4749 20.2779C23.313 21.0202 22.9965 21.72 22.5458 22.3316C22.1352 22.8721 21.5951 23.3004 20.9753 23.5772C20.3487 23.8566 19.5514 23.9964 18.5833 23.9964C17.409 23.9964 16.4498 23.826 15.7056 23.4854C14.9614 23.1447 14.3171 22.5442 13.7727 21.6841C13.2314 20.8247 12.9612 19.725 12.962 18.3848C12.962 16.5984 13.4372 15.2248 14.3876 14.264C15.338 13.3031 16.683 12.8231 18.4226 12.8239C19.7845 12.8239 20.8545 13.0994 21.6325 13.6503C22.4105 14.2011 22.9888 15.0468 23.3674 16.1873L20.4196 16.8433C20.3504 16.5861 20.2411 16.3415 20.0958 16.1184C19.9173 15.8705 19.6826 15.6685 19.4108 15.5288C19.1292 15.3885 18.8181 15.3177 18.5036 15.3223C17.7473 15.3223 17.1678 15.6267 16.7651 16.2356C16.4591 16.6874 16.3064 17.3966 16.3073 18.363C16.3073 19.5599 16.4893 20.3805 16.8533 20.8251C17.2173 21.2697 17.7284 21.4916 18.3864 21.4908C19.0243 21.4908 19.5075 21.3116 19.8361 20.9532C20.1647 20.5948 20.4023 20.0749 20.5489 19.3935ZM26.0469 13.0112H29.3849V16.7901H33.0333V13.0112H36.3858V23.8152H33.0333V19.4479H29.3849V23.8188H26.0469V13.0112ZM38.4637 18.4198C38.4637 16.6576 38.955 15.2844 39.9376 14.3002C40.9202 13.316 42.2893 12.8247 44.0451 12.8263C45.8427 12.8263 47.228 13.3096 48.2009 14.2761C49.1739 15.2425 49.6615 16.5944 49.6639 18.3316C49.6639 19.5953 49.4513 20.631 49.0261 21.4388C48.6122 22.236 47.971 22.8924 47.1837 23.3247C46.3783 23.7741 45.3772 23.9988 44.1804 23.9988C42.9626 23.9988 41.9559 23.8047 41.1602 23.4165C40.3426 23.0114 39.6661 22.3693 39.2188 21.5741C38.7146 20.7349 38.4629 19.6835 38.4637 18.4198ZM41.8017 18.4355C41.8017 19.5268 42.003 20.3105 42.4057 20.7865C42.8084 21.2625 43.3601 21.5005 44.0608 21.5005C44.7784 21.5005 45.3337 21.2673 45.7268 20.801C46.1198 20.3346 46.3163 19.497 46.3163 18.2881C46.3163 17.2709 46.1109 16.5275 45.7002 16.058C45.2894 15.5884 44.7329 15.3541 44.0306 15.3549C43.7252 15.3439 43.4213 15.4021 43.1416 15.5251C42.8619 15.6481 42.6137 15.8328 42.4154 16.0652C42.007 16.5485 41.8025 17.3386 41.8017 18.4355Z" />
  <path d="M48.248 18.4198C48.248 16.6576 48.7393 15.2844 49.7219 14.3002C50.7045 13.316 52.0737 12.8247 53.8294 12.8263C55.6287 12.8263 57.0144 13.3095 57.9865 14.276C58.9586 15.2425 59.4447 16.5947 59.4447 18.3328C59.4447 19.5965 59.2324 20.6322 58.808 21.44C58.3938 22.2369 57.7527 22.8932 56.9657 23.3258C56.1603 23.7753 55.1592 24 53.9623 24C52.7438 24 51.737 23.8059 50.9421 23.4177C50.1245 23.0122 49.4476 22.3703 48.9995 21.5753C48.4985 20.7353 48.248 19.6834 48.248 18.4198ZM51.5872 18.4355C51.5872 19.5268 51.7886 20.3104 52.1913 20.7864C52.594 21.2624 53.1465 21.5008 53.8488 21.5016C54.5664 21.5016 55.1217 21.2685 55.5147 20.8021C55.9078 20.3358 56.1043 19.4982 56.1043 18.2893C56.1043 17.2721 55.8993 16.5287 55.4894 16.0592C55.0794 15.5896 54.5229 15.3552 53.8198 15.356C53.5139 15.3443 53.2093 15.402 52.929 15.5248C52.6486 15.6476 52.3997 15.8324 52.2009 16.0652C51.791 16.5484 51.5864 17.3385 51.5872 18.4355Z" />
  <path d="M59.0967 13.0111H62.4359V21.1549H67.6464V23.8127H59.0967V13.0111Z" />
</svg>