<svg width="110" height="40" viewBox="0 0 110 40">
<path d="M14.8069 15.5681V7.49892C14.8069 6.84687 14.6847 6.41896 14.4402 6.2152C14.1956 5.97068 13.727 5.84842 13.0342 5.84842H7.47135V17.2186H13.0342C13.727 17.2186 14.1956 17.1167 14.4402 16.9129C14.6847 16.6684 14.8069 16.2201 14.8069 15.5681ZM14.8069 32.5011V24.004C14.8069 23.352 14.6847 22.9241 14.4402 22.7203C14.1956 22.4758 13.727 22.3535 13.0342 22.3535H7.47135V34.1516H13.0342C13.727 34.1516 14.1956 34.0497 14.4402 33.8459C14.6847 33.6014 14.8069 33.1531 14.8069 32.5011ZM0.441406 0.713501H15.1126C19.5547 0.713501 21.7758 2.73079 21.7758 6.76537V15.079C21.7758 17.6465 20.9199 19.2155 19.2083 19.786C20.9199 20.3566 21.7758 21.8237 21.7758 24.1874V33.2346C21.7758 37.2692 19.5547 39.2865 15.1126 39.2865H0.441406V0.713501Z"/>
<path d="M27.7316 0.713501H34.7616V39.2865H27.7316V0.713501Z"/>
<path d="M63.5939 0.713501L55.647 19.9083L63.5328 39.2865H55.9527L48.3114 19.9083L56.0138 0.713501H63.5939ZM40.9758 39.2865V0.713501H48.0058V39.2865H40.9758Z"/>
<path d="M74.0949 33.9071H85.8318V39.2865H67.0038V0.713501H85.3428V6.09294H74.0949V16.7907H83.57V22.2312H74.0949V33.9071Z"/>
<path d="M102.094 32.2566V24.004C102.094 23.352 101.972 22.9241 101.727 22.7203C101.483 22.4758 101.034 22.3535 100.382 22.3535H95.4307C91.2331 22.3535 89.1343 20.3158 89.1343 16.2405V6.76537C89.1343 2.73079 91.335 0.713501 95.7363 0.713501H102.461C106.862 0.713501 109.063 2.73079 109.063 6.76537V12.1448H101.972V7.74345C101.972 7.09139 101.849 6.66348 101.605 6.45972C101.36 6.2152 100.912 6.09294 100.26 6.09294H97.937C97.2442 6.09294 96.7755 6.2152 96.531 6.45972C96.2865 6.66348 96.1642 7.09139 96.1642 7.74345V15.5069C96.1642 16.159 96.2865 16.6073 96.531 16.8518C96.7755 17.0556 97.2442 17.1575 97.937 17.1575H102.766C107.045 17.1575 109.185 19.1544 109.185 23.1482V33.2346C109.185 37.2692 106.964 39.2865 102.522 39.2865H95.9197C91.4776 39.2865 89.2565 37.2692 89.2565 33.2346V27.9163H96.2865V32.2566C96.2865 32.9086 96.4087 33.3569 96.6533 33.6014C96.8978 33.8052 97.3664 33.9071 98.0592 33.9071H100.382C101.034 33.9071 101.483 33.8052 101.727 33.6014C101.972 33.3569 102.094 32.9086 102.094 32.2566Z"/>
</svg>
