<svg width="23" height="40" viewBox="0 0 23 40">
<path d="M13.4486 35.9829L22.0417 35.9829L22.0417 40L0 40L9.66402e-08 31.8959C1.2691e-07 29.3576 1.15274 28.0884 3.45821 28.0884L9.99038 28.0884C11.9 28.0884 13.0178 28.9384 13.3438 30.6384L22.0417 26.9706L22.0417 31.3021L13.4486 34.6555L13.4486 35.9829ZM3.07396 35.9829L10.4794 35.9829L10.4794 33.0836C10.4794 32.711 10.4212 32.4548 10.3048 32.3151C10.165 32.1754 9.90888 32.1055 9.53627 32.1055L4.01711 32.1055C3.64451 32.1055 3.39999 32.1754 3.28355 32.3151C3.14383 32.4548 3.07396 32.711 3.07396 33.0836L3.07396 35.9829Z"/>
<path d="M18.0246 18.0041L13.3089 18.0041C12.9363 18.0041 12.6917 18.074 12.5753 18.2137C12.4356 18.3534 12.3657 18.6096 12.3657 18.9822L12.3657 21.8117C12.3657 24.2103 11.2013 25.4096 8.87258 25.4096L3.45821 25.4096C1.15274 25.4096 1.88985e-07 24.1521 2.18977e-07 21.637L2.64797e-07 17.7945C2.94789e-07 15.2795 1.15274 14.022 3.45821 14.022L6.53217 14.022L6.53217 18.074L4.01711 18.074C3.64451 18.074 3.39999 18.1439 3.28355 18.2836C3.14383 18.4233 3.07396 18.6795 3.07396 19.0521L3.07396 20.3795C3.07396 20.7754 3.14383 21.0432 3.28355 21.1829C3.39999 21.3226 3.64451 21.3925 4.01711 21.3925L8.4534 21.3925C8.826 21.3925 9.08217 21.3226 9.22189 21.1829C9.33833 21.0432 9.39655 20.7754 9.39655 20.3795L9.39655 17.6199C9.39655 15.1747 10.5376 13.9521 12.8198 13.9521L18.5835 13.9521C20.889 13.9521 22.0417 15.2213 22.0417 17.7596L22.0417 21.5322C22.0417 24.0706 20.889 25.3397 18.5835 25.3397L15.5445 25.3397L15.5445 21.3226L18.0246 21.3226C18.3972 21.3226 18.6534 21.2528 18.7931 21.113C18.9095 20.9733 18.9678 20.7055 18.9678 20.3096L18.9678 18.9822C18.9678 18.6096 18.9095 18.3534 18.7931 18.2137C18.6534 18.074 18.3972 18.0041 18.0246 18.0041Z"/>
<path d="M18.0246 4.05204L13.3089 4.05204C12.9363 4.05204 12.6917 4.1219 12.5753 4.26163C12.4356 4.40135 12.3657 4.65752 12.3657 5.03012L12.3657 7.85957C12.3657 10.2582 11.2013 11.4575 8.87258 11.4575L3.45821 11.4575C1.15274 11.4575 3.55362e-07 10.2 3.85354e-07 7.6849L4.31174e-07 3.84246C4.61166e-07 1.3274 1.15274 0.0698662 3.45821 0.0698662L6.53217 0.0698663L6.53217 4.12191L4.01711 4.12191C3.64451 4.12191 3.39999 4.19177 3.28355 4.33149C3.14383 4.47122 3.07396 4.72738 3.07396 5.09998L3.07396 6.42738C3.07396 6.82327 3.14383 7.09107 3.28355 7.2308C3.39999 7.37052 3.64451 7.44038 4.01711 7.44038L8.4534 7.44038C8.826 7.44038 9.08217 7.37052 9.22189 7.2308C9.33833 7.09107 9.39655 6.82327 9.39655 6.42738L9.39655 3.66779C9.39655 1.2226 10.5376 1.2566e-07 12.8198 1.52875e-07L18.5835 2.21606e-07C20.889 2.49099e-07 22.0417 1.26917 22.0417 3.80752L22.0417 7.58011C22.0417 10.1185 20.889 11.3876 18.5835 11.3876L15.5445 11.3876L15.5445 7.37053L18.0246 7.37053C18.3972 7.37053 18.6534 7.30066 18.7931 7.16093C18.9095 7.02121 18.9678 6.7534 18.9678 6.35751L18.9678 5.03012C18.9678 4.65752 18.9095 4.40135 18.7931 4.26163C18.6534 4.1219 18.3972 4.05204 18.0246 4.05204Z"/>
</svg>
