<?xml version="1.0" encoding="utf-8"?>
<!-- Generator: Adobe Illustrator 23.0.6, SVG Export Plug-In . SVG Version: 6.00 Build 0)  -->
<svg version="1.1" id="Layer_1" xmlns="http://www.w3.org/2000/svg" xmlns:xlink="http://www.w3.org/1999/xlink" x="0px" y="0px"
	 viewBox="0 0 125 99.4" style="enable-background:new 0 0 125 99.4;" xml:space="preserve">
<style type="text/css">
	.st0{fill:#404040;}
</style>
<title>Artboard 2</title>
<g id="Layer_9">
	<g>
		<path class="st0" d="M89,90.8l0.9,1.1l7.5-4.7l0,0L91.5,74l0,0l-5,3.9l-6.3,4.9l-6.5,5.1l0.6,1.8l1.6,4.9l1.6,4.8l8.1-5l0,0
			l-0.2-1.8l-0.6-5.2l1-0.4l0.2,0.3L89,90.8z"/>
		<path class="st0" d="M45.3,79.4l12.4-10.2l0,0l-0.5-0.8l-3.4-5.3L49,55.6L33.8,69c1.6,3.2,3,6.1,4.4,8.9l2.6,5.3l0,0L45.3,79.4z"
			/>
		<path class="st0" d="M75.9,80l5.1-4.2l8.1-6.7l-5.4-8.3l-4.2-6.5l0,0l-2.6,2.8L68,66.5l-2.6,2.8l2.3,4.8l4.5,9.1l0,0L75.9,80z"/>
		<path class="st0" d="M42.5,11.5L42.5,11.5l3.2,2.5l6.5,5l8,6.3l0,0l3.8-8.6l2.2-4.7l0,0c-0.9-0.5-1.7-1-2.5-1.5l-5.2-3.1l0,0
			l-0.7,0.9l-2.5,3.1l-0.7,0.9l-1-0.6v-0.1l0.9-6.8l0,0C53,4,51.6,3.2,50.2,2.4l-4.1-2.3l0,0L42.5,11.5z"/>
		<path class="st0" d="M83.6,38.6l5.5-8.5l0,0l-4-3.3l-0.8-0.6L71.9,16l-6.7,14l10.6,9.9l4.3,4l0,0L83.6,38.6z"/>
		<path class="st0" d="M37.2,23.4L34,30l0,0l4.9,5.2l9.3,9.8l0,0l2.2-3.4c0.9-1.4,1.8-2.7,2.6-4.1l4.7-7.3L47.9,22
			c-2.3-1.9-4.7-3.9-7.2-5.9l0,0L37.2,23.4z"/>
		<path class="st0" d="M13,80.3l9.8-8.1l3.7-3l0,0L25,66.8l-8-12.5L7.2,64.7l-4.4,4.7l1,2.2l4.5,9.2l1.2,2.5l0,0L13,80.3z"/>
		<path class="st0" d="M26.5,30.1L26.5,30.1l-17.1-14l-1.2,2.6L2.5,30.5l3.4,3.1l11.5,10.6l0,0L26.5,30.1z"/>
		<path class="st0" d="M100.6,65l-4.1,4.3l5.3,11.1l1.4,2.9l4.1-3.4l10.4-8.7l2.5-2.1l-9.5-14.7L100.6,65z"/>
		<path class="st0" d="M84.8,11.6l0.5-3.8l0.4-2.9l0,0c-0.3-0.2-0.6-0.4-0.9-0.6L77.4,0l0,0l-3.7,11.6l17.8,13.7l0,0l1.3-3L96,15
			l1.3-3l-0.8-0.5C94.1,10,92,8.7,90,7.5l-4.3,4.7L85.3,12L84.8,11.6z"/>
		<path class="st0" d="M103.2,16.1L103.2,16.1l-5.9,12.1L96.5,30l10.7,11.3l3.5,3.7l0,0l1.8-2.8l7.7-12l-1-0.8L103.2,16.1
			L103.2,16.1z"/>
		<path class="st0" d="M15,99.3l8.3-5.1L23.1,93l-0.6-3.6l-0.3-1.6l0.1-0.1l0.9-0.9l3.3,4l0.8,1l0,0l7.5-4.7l0,0l-3.3-7.4L29,74l0,0
			L11.2,87.8L15,99.3z"/>
		<path class="st0" d="M121.2,7.5L121.2,7.5l-4.2,4.6l-0.2-0.1c-0.2-0.1-0.4-0.3-0.6-0.4l0.8-6.8l-1.1-0.7c-1.9-1.2-3.8-2.3-5.9-3.5
			c-0.4-0.2-0.8-0.5-1.2-0.7l0,0l-1.5,4.6L106,8.6l-0.9,2.8l14.5,11.3l3.2,2.5l2.3-5.1V9.8L121.2,7.5z"/>
		<path class="st0" d="M3.6,12l-3.3-2L0,9.8v10.5l3.5-8.1L3.6,12z"/>
		<path class="st0" d="M125,34.6L125,34.6l-10.4,15.1l0,0l1,1.5l9.4,13.5V34.6z"/>
		<path class="st0" d="M3.6,87.2L3.6,87.2L0,79.1v10.4L3.6,87.2L3.6,87.2z"/>
		<path class="st0" d="M5.9,58.1l7.6-8.4L0,34.6v30l1.3-1.5L5.9,58.1z"/>
		<path class="st0" d="M50.5,96.8l0.3-0.2l3.7-2.3l0,0v-0.5l-0.6-5l-0.2-1.6l0.8-0.2h0.2l4,5l2.8-1.8c1.5-1,3-1.9,4.6-3l0,0
			l-4.7-10.5L60.3,74L42.5,87.8l3.7,11.6l0,0L50.5,96.8z"/>
		<path class="st0" d="M122.7,74L122.7,74l-8.6,6.7l-5.3,4.1l-3.8,2.9l2.7,8.7l0.9,3l0,0l3-1.8l4.6-2.8l0.8-0.5l-1.1-6.9l0.8-0.2
			c0.1-0.1,0.2-0.1,0.4-0.1l1.5,1.8l2.5,3.1l1-0.6l2.9-1.8V79.1L122.7,74z"/>
		<path class="st0" d="M23.7,21.1l5.4,4.2l0,0L34.9,12l0,0c-2.6-1.6-4.8-3-6.9-4.2l-0.7-0.4L25.2,10l-1.8,2.2L23.2,12l-0.8-0.4
			l0.5-3.3l0.5-3.4c-0.5-0.3-1.1-0.6-1.6-0.9c-1.8-1-3.4-2-5.1-3c-0.6-0.3-1.2-0.7-1.8-1l-3.7,11.5L23.7,21.1z"/>
		<path class="st0" d="M107.2,49.7L107.2,49.7c-1.3-1.5-2.6-2.9-3.9-4.4c-1.9-2.1-3.8-4.3-5.8-6.5l-3.7-4.2l-1.4,2l-9,13l10.3,15
			l0.1-0.1l10.3-11.4L107.2,49.7z"/>
		<path class="st0" d="M52.1,49.7L52.1,49.7l10.4,15l0,0l5.1-5.7l8.4-9.3L65,37.4l-2.4-2.7l0,0l-4.2,6.1L52.1,49.7L52.1,49.7z"/>
		<path class="st0" d="M22.5,52l8.7,12.7l3.1-3.5l10.3-11.6l0,0l-13.4-15l0,0l-10.3,15L22.5,52z"/>
	</g>
</g>
</svg>
